<svg width="370" height="72" viewBox="0 0 370 72" fill="none" xmlns="http://www.w3.org/2000/svg">
<path d="M93.6875 36.5938C93.6875 29.4062 95.5104 23.6979 99.1562 19.4688C102.802 15.2396 108.062 13.125 114.938 13.125C118.896 13.125 122.25 13.7396 125 14.9688C127.75 16.1979 129.688 17.9792 130.812 20.3125C131.562 21.8542 131.438 22.8958 130.438 23.4375L126.688 25.4375C125.375 26.1458 124.292 25.75 123.438 24.25C122.896 23.2917 121.885 22.4271 120.406 21.6562C118.948 20.8854 117.229 20.5 115.25 20.5C110.875 20.5 107.812 21.8854 106.062 24.6562C104.312 27.4062 103.438 31.3854 103.438 36.5938C103.438 41.8021 104.312 45.7917 106.062 48.5625C107.812 51.3125 110.875 52.6875 115.25 52.6875C117.604 52.6875 119.583 52.1562 121.188 51.0938C122.812 50.0312 123.938 49.0208 124.562 48.0625C125.583 46.5 126.667 46.1042 127.812 46.875L131.562 49.375C132.583 50.0625 132.688 51.1042 131.875 52.5C130.667 54.5833 128.594 56.3646 125.656 57.8438C122.719 59.3229 119.146 60.0625 114.938 60.0625C108.167 60.0625 102.927 57.9479 99.2188 53.7188C95.5312 49.4896 93.6875 43.7812 93.6875 36.5938Z" fill="#CA773B"/>
<path d="M141.438 59C140.188 59 139.562 58.375 139.562 57.125V20.2188C139.562 19.2812 139.781 18.4271 140.219 17.6562L142.625 13.4375C143.083 12.6458 143.625 12.25 144.25 12.25H146.438C147.688 12.25 148.312 12.875 148.312 14.125V57.125C148.312 58.375 147.688 59 146.438 59H141.438Z" fill="#CA773B"/>
<path d="M155.062 42.5938C155.062 37.2812 156.427 33.1146 159.156 30.0938C161.906 27.0729 165.99 25.5625 171.406 25.5625C176.823 25.5625 180.896 27.0729 183.625 30.0938C186.375 33.1146 187.75 37.2812 187.75 42.5938C187.75 47.9062 186.375 52.0729 183.625 55.0938C180.896 58.1146 176.823 59.625 171.406 59.625C165.99 59.625 161.906 58.1146 159.156 55.0938C156.427 52.0729 155.062 47.9062 155.062 42.5938ZM164.312 42.5938C164.312 46.5521 164.917 49.3646 166.125 51.0312C167.354 52.6771 169.115 53.5 171.406 53.5C173.698 53.5 175.448 52.6771 176.656 51.0312C177.885 49.3646 178.5 46.5521 178.5 42.5938C178.5 38.6354 177.885 35.8333 176.656 34.1875C175.448 32.5208 173.698 31.6875 171.406 31.6875C169.115 31.6875 167.354 32.5208 166.125 34.1875C164.917 35.8333 164.312 38.6354 164.312 42.5938Z" fill="#CA773B"/>
<path d="M194.438 45.375V28.0625C194.438 26.8125 195.062 26.1875 196.312 26.1875H201.312C202.562 26.1875 203.188 26.8125 203.188 28.0625V43.125C203.188 47.6667 203.5 50.5312 204.125 51.7188C204.75 52.9062 206.062 53.5 208.062 53.5C210.188 53.5 211.802 52.6562 212.906 50.9688C214.01 49.2604 214.562 45.7292 214.562 40.375V28.0625C214.562 26.8125 215.188 26.1875 216.438 26.1875H221.438C222.688 26.1875 223.312 26.8125 223.312 28.0625V57.125C223.312 58.375 222.688 59 221.438 59H216.5C215.25 59 214.625 58.375 214.625 57.125V55.3125H214.5C213.542 56.9583 212.323 58.0938 210.844 58.7188C209.365 59.3229 207.615 59.625 205.594 59.625C202.406 59.625 199.75 58.6042 197.625 56.5625C195.5 54.5208 194.438 50.7917 194.438 45.375Z" fill="#CA773B"/>
<path d="M230.719 32.4375C229.49 32.4375 228.875 31.9167 228.875 30.875V27.75C228.875 26.7083 229.49 26.1875 230.719 26.1875H232.844V25.0938C232.844 24.1562 233.062 23.3021 233.5 22.5312L235.906 18.3125C236.365 17.5208 236.906 17.125 237.531 17.125H239.719C240.969 17.125 241.594 17.75 241.594 19V26.1875H246.656C247.885 26.1875 248.5 26.7083 248.5 27.75V30.875C248.5 31.9167 247.885 32.4375 246.656 32.4375H241.594V47.9375C241.594 50.0625 241.74 51.5938 242.031 52.5312C242.344 53.4479 243.135 53.9062 244.406 53.9062C245.052 53.9062 245.781 53.8021 246.594 53.5938C247.406 53.3646 248.042 53.1458 248.5 52.9375C249.229 52.6042 249.708 52.8438 249.938 53.6562L250.875 57.2188C251.062 57.9271 250.792 58.4479 250.062 58.7812C249.375 59.0938 248.427 59.375 247.219 59.625C246.031 59.8958 244.833 60.0312 243.625 60.0312C240.646 60.0312 238.104 59.4167 236 58.1875C233.896 56.9583 232.844 54.4271 232.844 50.5938V32.4375H230.719Z" fill="#CA773B"/>
<path d="M259.688 59C258.229 59 257.5 58.2188 257.5 56.6562V16.5312C257.5 14.9688 258.229 14.1875 259.688 14.1875H264.438C265.896 14.1875 266.625 14.9688 266.625 16.5312V31.8125H283.438V16.5312C283.438 14.9688 284.167 14.1875 285.625 14.1875H290.375C291.833 14.1875 292.562 14.9688 292.562 16.5312V56.6562C292.562 58.2188 291.833 59 290.375 59H285.625C284.167 59 283.438 58.2188 283.438 56.6562V39.5625H266.625V56.6562C266.625 58.2188 265.896 59 264.438 59H259.688Z" fill="white"/>
<path d="M301.75 45.375V28.0625C301.75 26.8125 302.375 26.1875 303.625 26.1875H308.625C309.875 26.1875 310.5 26.8125 310.5 28.0625V43.125C310.5 47.6667 310.812 50.5312 311.438 51.7188C312.062 52.9062 313.375 53.5 315.375 53.5C317.5 53.5 319.115 52.6562 320.219 50.9688C321.323 49.2604 321.875 45.7292 321.875 40.375V28.0625C321.875 26.8125 322.5 26.1875 323.75 26.1875H328.75C330 26.1875 330.625 26.8125 330.625 28.0625V57.125C330.625 58.375 330 59 328.75 59H323.812C322.562 59 321.938 58.375 321.938 57.125V55.3125H321.812C320.854 56.9583 319.635 58.0938 318.156 58.7188C316.677 59.3229 314.927 59.625 312.906 59.625C309.719 59.625 307.062 58.6042 304.938 56.5625C302.812 54.5208 301.75 50.7917 301.75 45.375Z" fill="white"/>
<path d="M341 59C339.75 59 339.125 58.375 339.125 57.125V14.75C339.125 13.5 339.75 12.875 341 12.875H346C347.25 12.875 347.875 13.5 347.875 14.75V27.375C347.875 28.2083 347.833 29.0417 347.75 29.875H347.875C348.958 28.0833 350.167 26.9167 351.5 26.375C352.833 25.8333 354.438 25.5625 356.312 25.5625C361.208 25.5625 364.646 27.2604 366.625 30.6562C368.625 34.0312 369.625 38.0104 369.625 42.5938C369.625 47.1771 368.625 51.1667 366.625 54.5625C364.646 57.9375 361.208 59.625 356.312 59.625C354.438 59.625 352.833 59.3542 351.5 58.8125C350.167 58.2708 348.958 57.1042 347.875 55.3125H347.75L347.625 57.125C347.542 58.375 346.979 59 345.938 59H341ZM347.875 44C347.875 46.8125 348.427 49.1042 349.531 50.875C350.656 52.625 352 53.5 353.562 53.5C356.375 53.5 358.208 52.5208 359.062 50.5625C359.938 48.5833 360.375 45.9271 360.375 42.5938C360.375 39.2604 359.938 36.6146 359.062 34.6562C358.208 32.6771 356.375 31.6875 353.562 31.6875C352 31.6875 350.656 32.5729 349.531 34.3438C348.427 36.0938 347.875 38.375 347.875 41.1875V44Z" fill="white"/>
<path fill-rule="evenodd" clip-rule="evenodd" d="M48.9581 0C55.3863 0 60.5974 5.21798 60.5975 11.6545V15.3835H16.4579V55.8856H73V57.8481C72.9998 65.6638 66.6721 72 58.8665 72H24.7718C18.3437 71.9999 13.1326 66.7819 13.1324 60.3455V59.2155H10.808C4.83901 59.2154 6.92129e-05 54.3702 0 48.3935V22.8757C0.000143692 16.899 4.83906 12.0538 10.808 12.0537H13.1324V11.6545C13.1325 5.21805 18.3437 0.000107694 24.7718 0H48.9581ZM16.4579 60.3455C16.4581 64.9428 20.1804 68.67 24.7718 68.6701H58.8665C64.3729 68.6701 68.9178 64.5466 69.5892 59.2155H16.4579V60.3455ZM10.808 15.3835C6.6757 15.3836 3.32567 18.7381 3.32553 22.8757V48.3935C3.32559 52.5312 6.67565 55.8855 10.808 55.8856H13.1324V15.3835H10.808ZM24.7718 3.32986C20.1803 3.32996 16.458 7.05708 16.4579 11.6545V12.0537H57.2719V11.6545C57.2719 7.05701 53.5497 3.32986 48.9581 3.32986H24.7718Z" fill="white"/>
</svg>
